<?xml version="1.0" encoding="iso-8859-1"?>
<!-- Generator: Adobe Illustrator 19.0.0, SVG Export Plug-In . SVG Version: 6.00 Build 0)  -->
<svg version="1.1" id="Capa_1" xmlns="http://www.w3.org/2000/svg" xmlns:xlink="http://www.w3.org/1999/xlink" x="0px" y="0px"
	 viewBox="0 0 512 512" style="enable-background:new 0 0 512 512;" xml:space="preserve">
<path style="fill:#444444;" d="M490.027,256.692l-127.28-127.28c-11.968-11.968-27.158-19.38-43.931-21.416
	c-8.262-1.26-15.703,4.849-16.699,13.066L121.063,302.117c-8.218,0.996-14.077,8.481-13.066,16.699
	c2.036,16.772,9.448,31.963,21.416,43.931l127.28,127.28C270.843,504.192,289.681,512,309.72,512s38.877-7.808,53.027-21.973
	l127.28-127.28C504.192,348.597,512,329.759,512,309.72S504.192,270.843,490.027,256.692z"/>
<g>
	<path style="fill:#9BFCFF;" d="M394.581,339.728c-8.015,0-15.554-3.125-21.228-8.798c-11.684-11.694-11.68-30.726,0.015-42.42
		c5.302-5.31,13.026-8.351,21.203-8.351s15.909,3.044,21.217,8.351c11.695,11.695,11.695,30.725,0,42.42
		C410.114,336.604,402.583,339.728,394.581,339.728z"/>
	<path style="fill:#9BFCFF;" d="M309.718,424.55c-8.026,0-15.558-3.112-21.208-8.762c-11.699-11.699-11.699-30.735,0-42.435
		c5.646-5.637,13.184-8.746,21.214-8.746c8.025,0,15.56,3.109,21.215,8.755c11.689,11.69,11.689,30.727-0.009,42.426
		C325.279,421.438,317.746,424.55,309.718,424.55z"/>
</g>
<path style="fill:#E9336D;" d="M255,0H75C33.6,0,0,33.6,0,75v180c0,41.4,33.6,75,75,75h180c41.4,0,75-33.6,75-75V75
	C330,33.6,296.4,0,255,0z"/>
<path style="fill:#B12E65;" d="M330,75v180c0,41.4-33.6,75-75,75h-90V0h90C296.4,0,330,33.6,330,75z"/>
<g>
	<path style="fill:#9BFCFF;" d="M225,135c-16.542,0-30-13.458-30-30s13.458-30,30-30s30,13.458,30,30S241.542,135,225,135z"/>
	<path style="fill:#9BFCFF;" d="M225,255c-16.542,0-30-13.458-30-30s13.458-30,30-30s30,13.458,30,30S241.542,255,225,255z"/>
</g>
<g>
	<path style="fill:#E4FEFF;" d="M105,135c-16.542,0-30-13.458-30-30s13.458-30,30-30s30,13.458,30,30S121.542,135,105,135z"/>
	<path style="fill:#E4FEFF;" d="M105,255c-16.542,0-30-13.458-30-30s13.458-30,30-30s30,13.458,30,30S121.542,255,105,255z"/>
</g>
<g>
</g>
<g>
</g>
<g>
</g>
<g>
</g>
<g>
</g>
<g>
</g>
<g>
</g>
<g>
</g>
<g>
</g>
<g>
</g>
<g>
</g>
<g>
</g>
<g>
</g>
<g>
</g>
<g>
</g>
</svg>
