<svg id="Capa_1" enable-background="new 0 0 512 512" height="512" viewBox="0 0 512 512" width="512" xmlns="http://www.w3.org/2000/svg"><g><circle cx="256" cy="256" fill="#f9f4f3" r="149.941"/><path d="m405.941 256c0-82.676-67.266-149.941-149.941-149.941v299.883c82.676-.001 149.941-67.266 149.941-149.942z" fill="#f0e6e1"/><path d="m466 256c0 28.5-5.7 55.499-15.901 80.099l-48.257 24.737-21.043-53.238c6.601-16.198 10.201-33.599 10.201-51.598l32.853-33.098z" fill="#4d2e2e"/><path d="m131.499 204.399c-6.899 15.901-10.499 33.6-10.499 51.601l-36.114 20.462-38.886-20.462c0-28.5 5.7-55.8 15.901-80.4l59.67-14.328z" fill="#664747"/><path d="m204.401 131.199c-16.802 6.901-31.501 17.1-43.801 29.401l-36.095-2.997-17.005-50.103c19.2-19.2 42.301-34.799 68.101-45.601l39.15 35.541z" fill="#664747"/><path d="m160.6 351.4-7.481 54.193-45.619-1.093c-19.2-19.2-34.799-42.301-45.599-68.101l28.121-41.595 41.478 12.795c6.6 16.5 16.501 31.201 29.1 43.801z" fill="#664747"/><path d="m450.099 175.6-29.914 34.829-39.684-6.03c-6.601-16.5-16.501-31.199-29.101-43.799l3.486-41.883 49.614-11.217c19.201 19.2 34.8 42.299 45.599 68.1z" fill="#4d2e2e"/><path d="m404.5 404.5c-19.2 19.199-42.301 34.799-68.101 45.298l-44.612-23.663 15.811-45.337c16.501-6.899 31.501-16.8 43.801-29.399l38.703 5.769z" fill="#4d2e2e"/><path d="m336.4 61.899 7.481 53.15-36.281 16.15c-15.6-6.599-33-10.199-51.6-10.199l-22.908-33.832 22.908-41.168c28.5 0 55.8 5.7 80.4 15.899z" fill="#4d2e2e"/><path d="m256 391 29.918 36.603-29.918 38.397c-28.5 0-55.8-5.7-80.4-15.901l-18.078-51.844 46.879-17.456c15.599 6.601 32.999 10.201 51.599 10.201z" fill="#664747"/><g fill="#bf283f"><path d="m404.5 107.5-53.1 53.1c-12.299-12.601-26.999-22.8-43.801-29.401l28.801-69.3c25.799 10.801 48.9 26.4 68.1 45.601z"/><path d="m466 256h-75c0-18.001-3.6-35.7-10.499-51.601l69.598-28.799c10.201 24.6 15.901 51.9 15.901 80.4z"/><path d="m450.099 336.099c-10.499 25.8-26.1 48.9-45.599 68.401l-53.1-53.1c12.301-12.301 22.5-27.301 29.399-43.801z"/><path d="m336.4 449.799c-24.6 10.501-51.9 16.201-80.4 16.201v-75c18.6 0 35.7-3.6 51.599-10.201z"/></g><path d="m204.401 380.799-28.801 69.3c-25.8-10.8-48.9-26.4-68.101-45.599l53.101-53.1c12.299 12.599 26.999 22.8 43.801 29.399z" fill="#d9415a"/><path d="m131.499 307.599-69.598 28.801c-10.201-24.6-15.901-51.9-15.901-80.4h75c0 17.999 3.6 35.7 10.499 51.599z" fill="#d9415a"/><path d="m256 46v75c-18.3 0-36 3.6-51.599 10.199l-28.801-69.3c24.6-10.199 51.9-15.899 80.4-15.899z" fill="#d9415a"/><path d="m160.6 160.6c-12.599 12.599-22.5 27.299-29.101 43.799l-69.598-28.799c10.8-25.801 26.398-48.9 45.599-68.101z" fill="#d9415a"/><path d="m353.5 20.499 9.457 37.077-32.257 18.124c-23.101-9.3-48.3-14.7-74.7-14.7s-51.599 5.4-74.7 14.7l-32.216-17.145 9.416-38.055c30-12.601 62.999-20.5 97.5-20.5s67.5 7.899 97.5 20.499z" fill="#ffea80"/><path d="m330.7 75.7 32.258-18.124-9.458-37.077c-30-12.6-62.999-20.499-97.5-20.499v61c26.4 0 51.599 5.4 74.7 14.7z" fill="#ffcf40"/><path d="m512 256c0 34.499-7.899 67.5-20.501 97.5l-40.01 17.609-15.189-40.409c9.3-23.101 14.7-48.3 14.7-74.7s-5.4-51.601-14.7-74.7l13.721-43.507 41.478 20.707c12.602 30 20.501 62.999 20.501 97.5z" fill="#ffea80"/><path d="m491.499 158.5-55.199 22.8c-20.099-47.4-58.2-85.501-105.6-105.6l22.8-55.201c62.401 25.801 112.2 75.6 137.999 138.001z" fill="#ffaf40"/><path d="m353.5 491.499c-30 12.6-62.999 20.501-97.5 20.501s-67.5-7.901-97.5-20.501l-10.761-43.108 33.561-12.091c23.101 9.3 48.3 14.7 74.7 14.7s51.599-5.4 74.7-14.7l38.616 12.091z" fill="#ffea80"/><path d="m353.5 491.499 15.815-43.109-38.615-12.09c-23.101 9.3-48.3 14.7-74.7 14.7v61c34.501 0 67.5-7.901 97.5-20.501z" fill="#ffcf40"/><path d="m491.499 353.5c-25.8 62.399-75.599 112.2-137.999 137.999l-22.8-55.199c47.4-20.101 85.501-58.2 105.6-105.6z" fill="#ffaf40"/><path d="m61 256c0 26.4 5.4 51.599 14.7 74.7l-20.406 38.452-34.793-15.652c-12.602-30-20.501-63.001-20.501-97.5 0-34.501 7.899-67.5 20.501-97.5l38.217-7.011 16.982 29.811c-9.3 23.099-14.7 48.3-14.7 74.7z" fill="#ffea80"/><path d="m181.3 436.3-22.8 55.199c-62.401-25.799-112.2-75.6-137.999-137.999l55.199-22.8c20.099 47.4 58.2 85.499 105.6 105.6z" fill="#ffcf40"/><path d="m181.3 75.7c-47.4 20.099-85.501 58.2-105.6 105.6l-55.199-22.8c25.799-62.401 75.598-112.2 137.999-138.001z" fill="#ffcf40"/><path d="m234.789 249.789c-3.838 0-7.676-1.465-10.605-4.395l-21.211-21.211c-5.859-5.859-5.859-15.352 0-21.211s15.352-5.859 21.211 0l21.211 21.211c5.859 5.859 5.859 15.352 0 21.211-2.93 2.93-6.768 4.395-10.606 4.395z" fill="#4d2e2e"/><path d="m298.422 313.422c-3.838 0-7.676-1.465-10.605-4.395l-21.211-21.211c-5.859-5.859-5.859-15.352 0-21.211s15.352-5.859 21.211 0l21.211 21.211c5.859 5.859 5.859 15.352 0 21.211-2.93 2.93-6.768 4.395-10.606 4.395z" fill="#331a1a"/><path d="m277.211 249.789c-3.838 0-7.676-1.465-10.605-4.395-5.859-5.859-5.859-15.352 0-21.211l21.211-21.211c5.859-5.859 15.352-5.859 21.211 0s5.859 15.352 0 21.211l-21.211 21.211c-2.93 2.93-6.768 4.395-10.606 4.395z" fill="#331a1a"/><path d="m213.578 313.422c-3.838 0-7.676-1.465-10.605-4.395-5.859-5.859-5.859-15.352 0-21.211l21.211-21.211c5.859-5.859 15.352-5.859 21.211 0s5.859 15.352 0 21.211l-21.211 21.211c-2.93 2.93-6.768 4.395-10.606 4.395z" fill="#4d2e2e"/><path d="m256 301c-24.814 0-45-20.186-45-45s20.186-45 45-45 45 20.186 45 45-20.186 45-45 45z" fill="#664747"/><path d="m301 256c0-24.814-20.186-45-45-45v90c24.814 0 45-20.186 45-45z" fill="#4d2e2e"/></g></svg>